<?xml version="1.0" encoding="iso-8859-1"?>
<!-- Generator: Adobe Illustrator 19.0.0, SVG Export Plug-In . SVG Version: 6.00 Build 0)  -->
<svg version="1.1" id="Capa_1" xmlns="http://www.w3.org/2000/svg" xmlns:xlink="http://www.w3.org/1999/xlink" x="0px" y="0px"
	 viewBox="0 0 512 512" style="enable-background:new 0 0 512 512;" xml:space="preserve">
<g>
	<path style="fill:#FF5E6B;" d="M82.518,198.497c-4.234,0-7.678-3.415-7.712-7.651c-0.004-0.269-0.317-14.522-8.981-31.516
		c-11.613-22.774-32.046-39.573-60.73-49.936c-4.007-1.447-6.081-5.868-4.634-9.875c1.448-4.008,5.875-6.081,9.875-4.634
		c40.897,14.773,60.438,39.817,69.63,58.226c10.074,20.175,10.263,36.934,10.266,37.638c0.02,4.26-3.418,7.728-7.679,7.748
		C82.542,198.497,82.53,198.497,82.518,198.497z"/>
	<path style="fill:#FF5E6B;" d="M183.296,197.727c-0.746,0-1.501-0.108-2.25-0.337c-4.066-1.239-6.364-5.534-5.138-9.601
		c0.092-0.314,3.984-14.004,0.738-32.76c-4.359-25.189-18.912-47.28-43.25-65.66c-3.4-2.567-4.074-7.403-1.508-10.803
		c2.568-3.399,7.405-4.073,10.803-1.507c34.7,26.204,45.963,55.907,49.3,76.211c3.658,22.251-1.116,38.317-1.32,38.99
		C189.659,195.586,186.602,197.727,183.296,197.727z"/>
</g>
<path style="fill:#E63E4C;" d="M413.433,436.5c-3.71,0-6.983-2.685-7.603-6.466c-7.474-45.599,15.224-76.658,16.194-77.958
	c2.547-3.413,7.38-4.116,10.794-1.569c3.407,2.543,4.114,7.363,1.583,10.776c-0.296,0.405-19.707,27.458-13.347,66.255
	c0.689,4.204-2.161,8.171-6.364,8.86C414.269,436.467,413.848,436.5,413.433,436.5z"/>
<g>
	<path style="fill:#FF5E6B;" d="M250.369,436.5c-3.71,0-6.983-2.685-7.603-6.466c-7.474-45.599,15.224-76.658,16.194-77.958
		c2.546-3.413,7.381-4.116,10.794-1.569c3.407,2.543,4.114,7.363,1.583,10.776c-0.296,0.405-19.707,27.458-13.348,66.255
		c0.689,4.204-2.161,8.171-6.364,8.86C251.203,436.467,250.782,436.5,250.369,436.5z"/>
	<ellipse style="fill:#FF5E6B;" cx="426.739" cy="302.222" rx="85.261" ry="79.957"/>
</g>
<g>
	<ellipse style="fill:#E63E4C;" cx="308.557" cy="302.222" rx="85.261" ry="79.957"/>
	<path style="fill:#E63E4C;" d="M176.646,155.028c3.246,18.757-0.647,32.447-0.738,32.76c-1.225,4.068,1.072,8.363,5.138,9.601
		c0.75,0.228,1.506,0.337,2.25,0.337c3.305,0,6.363-2.142,7.376-5.467c0.205-0.674,4.978-16.739,1.32-38.99
		c-0.123-0.751-0.261-1.52-0.407-2.295c-5.613-2.401-11.404-4.494-17.349-6.249C175.233,148.099,176.041,151.533,176.646,155.028z"
		/>
	<path style="fill:#E63E4C;" d="M65.825,159.33c8.665,16.994,8.977,31.246,8.981,31.516c0.034,4.236,3.478,7.651,7.712,7.651
		c0.012,0,0.024,0,0.035,0c4.261-0.02,7.697-3.488,7.679-7.748c-0.003-0.703-0.193-17.463-10.266-37.638
		c-1.01-2.022-2.152-4.127-3.426-6.285c-4.965,1.705-9.813,3.643-14.525,5.806C63.366,154.81,64.653,157.031,65.825,159.33z"/>
</g>
<ellipse style="fill:#FF5E6B;" cx="128.672" cy="283.721" rx="127.777" ry="119.838"/>
<path style="fill:#E63E4C;" d="M138.955,382.987c-70.57,0-127.779-53.651-127.779-119.834c0-14.14,2.619-27.706,7.415-40.301
	c-11.24,17.84-17.699,38.646-17.699,60.869c0,66.183,57.208,119.834,127.779,119.834c55.492,0,102.714-33.178,120.363-79.532
	C226.8,359.312,185.829,382.987,138.955,382.987z"/>
<g>
	<path style="fill:#3B484A;" d="M39.046,291.744c-4.261,0-7.713-3.453-7.713-7.713v-10.446c0-4.26,3.452-7.713,7.713-7.713
		s7.713,3.453,7.713,7.713v10.446C46.759,288.29,43.305,291.744,39.046,291.744z"/>
	<path style="fill:#3B484A;" d="M154.484,291.744c-4.261,0-7.713-3.453-7.713-7.713v-10.446c0-4.26,3.452-7.713,7.713-7.713
		s7.713,3.453,7.713,7.713v10.446C162.197,288.29,158.744,291.744,154.484,291.744z"/>
	<path style="fill:#3B484A;" d="M96.765,297.32c-7.778,0-15.086-3.258-20.052-8.939c-2.804-3.208-2.476-8.08,0.73-10.883
		c3.208-2.802,8.078-2.477,10.883,0.73c2.036,2.33,5.113,3.666,8.439,3.666c3.327,0,6.403-1.336,8.438-3.665
		c2.804-3.208,7.675-3.535,10.883-0.731c3.208,2.803,3.536,7.675,0.732,10.883C111.852,294.062,104.543,297.32,96.765,297.32z"/>
</g>
<path style="fill:#FF5E6B;" d="M321.864,436.5c-0.414,0-0.835-0.033-1.257-0.103c-4.204-0.689-7.053-4.656-6.364-8.86
	c6.376-38.897-13.151-65.988-13.349-66.257c-2.517-3.423-1.801-8.249,1.614-10.779c3.413-2.53,8.223-1.833,10.765,1.573
	c0.97,1.3,23.668,32.359,16.194,77.958C328.847,433.815,325.575,436.5,321.864,436.5z"/>
<path style="fill:#E63E4C;" d="M484.93,436.5c-0.414,0-0.835-0.033-1.257-0.103c-4.204-0.689-7.053-4.656-6.364-8.86
	c6.425-39.202-13.135-65.971-13.333-66.237c-2.548-3.414-1.845-8.247,1.568-10.794c3.414-2.547,8.248-1.844,10.794,1.569
	c0.97,1.3,23.667,32.358,16.193,77.957C491.913,433.815,488.64,436.5,484.93,436.5z"/>
<g>
</g>
<g>
</g>
<g>
</g>
<g>
</g>
<g>
</g>
<g>
</g>
<g>
</g>
<g>
</g>
<g>
</g>
<g>
</g>
<g>
</g>
<g>
</g>
<g>
</g>
<g>
</g>
<g>
</g>
</svg>
