<svg id="Capa_1" enable-background="new 0 0 512.004 512.004" height="512" viewBox="0 0 512.004 512.004" width="512" xmlns="http://www.w3.org/2000/svg"><g><g clip-rule="evenodd" fill-rule="evenodd"><path d="m229.958 221.915-9.813-91.777c-.323-6.528-8.358-9.965-12.993-5.331l-10.223 10.223-122.636-122.635c-3.191-3.192-8.414-3.192-11.606 0l-50.292 50.291c-3.192 3.192-3.192 8.414 0 11.606l122.636 122.636-10.224 10.224c-4.372 4.368-1.543 12.262 4.904 12.948l92.085 9.845c4.699.569 8.666-3.279 8.162-8.03z" fill="#ffa76b"/><path d="m221.796 282.058-92.085 9.845c-6.447.685-9.276 8.579-4.904 12.947l10.224 10.224-122.636 122.637c-3.191 3.192-3.191 8.414 0 11.606l50.292 50.292c3.192 3.192 8.414 3.192 11.606 0l122.636-122.636 10.224 10.224c4.635 4.634 12.67 1.197 12.993-5.331l9.812-91.777c.504-4.752-3.462-8.6-8.162-8.031z" fill="#a0e4a5"/><path d="m282.047 290.088 9.812 91.777c.323 6.528 8.358 9.965 12.993 5.331l10.223-10.224 122.636 122.636c3.192 3.192 8.414 3.192 11.606 0l50.292-50.292c3.192-3.192 3.192-8.414 0-11.606l-122.636-122.635 10.224-10.224c4.373-4.368 1.543-12.262-4.904-12.947l-92.086-9.845c-4.699-.57-8.665 3.278-8.16 8.029z" fill="#ff7d95"/><path d="m290.208 229.945 92.086-9.845c6.447-.685 9.276-8.579 4.904-12.947l-10.224-10.224 122.635-122.637c3.191-3.192 3.191-8.414 0-11.606l-50.292-50.292c-3.191-3.192-8.414-3.192-11.606 0l-122.636 122.636-10.223-10.223c-4.635-4.635-12.67-1.197-12.993 5.33l-9.812 91.778c-.505 4.751 3.461 8.599 8.161 8.03z" fill="#a0c8ff"/></g><g><path d="m34.821 110.86c3.905 3.905 10.237 3.905 14.143 0s3.905-10.237 0-14.143l-28.229-28.228 47.755-47.755 121.368 121.368c1.875 1.875 4.419 2.929 7.071 2.929s5.196-1.054 7.071-2.929l6.655-6.656 9.004 84.214-84.214-9.003 6.657-6.657c1.875-1.875 2.929-4.419 2.929-7.071s-1.054-5.196-2.929-7.071l-29.5-29.5c-3.905-3.905-10.237-3.905-14.143 0s-3.905 10.237 0 14.143l22.429 22.429-3.149 3.149c-4.75 4.745-6.287 11.695-4.011 18.139 2.317 6.563 8.037 11.095 14.919 11.827l92.026 9.838c.688.08 1.374.12 2.056.12 4.538 0 8.872-1.754 12.134-4.97 3.765-3.71 5.601-8.876 5.037-14.18l-9.789-91.551c-.475-6.884-4.938-12.914-11.452-15.426-6.552-2.528-13.67-1.047-18.58 3.861l-3.152 3.152-115.562-115.565c-3.433-3.433-8.005-5.323-12.875-5.323s-9.442 1.891-12.874 5.323l-50.292 50.291c-7.099 7.099-7.099 18.649 0 25.749z"/><path d="m220.677 272.121-92.023 9.839c-6.889.732-12.607 5.264-14.925 11.827-2.276 6.444-.739 13.395 4.008 18.136l3.153 3.153-115.566 115.564c-7.098 7.099-7.098 18.649 0 25.749l50.292 50.292c3.55 3.549 8.211 5.324 12.874 5.324 4.662 0 9.325-1.775 12.875-5.324l115.564-115.565 3.152 3.153c4.909 4.908 12.027 6.388 18.578 3.861 6.514-2.512 10.979-8.542 11.453-15.426l9.789-91.559c.563-5.297-1.273-10.463-5.037-14.173-3.753-3.699-8.922-5.463-14.187-4.851zm-10.021 104.436-6.656-6.656c-3.905-3.905-10.237-3.905-14.143 0l-121.367 121.368-47.755-47.755 121.368-121.368c1.875-1.875 2.929-4.419 2.929-7.071s-1.054-5.196-2.929-7.071l-6.656-6.656 84.213-9.003z"/><path d="m289.274 240.002c.681 0 1.367-.04 2.055-.12l92.021-9.838c6.888-.732 12.607-5.264 14.925-11.827 2.276-6.443.739-13.394-4.007-18.136l-3.153-3.153 115.565-115.565c7.099-7.099 7.098-18.649 0-25.749l-50.291-50.29c-3.433-3.433-8.005-5.323-12.875-5.323s-9.442 1.891-12.875 5.323l-115.564 115.564-3.153-3.153c-4.908-4.908-12.026-6.389-18.579-3.861-6.514 2.512-10.978 8.542-11.452 15.425l-9.789 91.558c-.563 5.297 1.273 10.463 5.038 14.173 3.264 3.217 7.596 4.972 12.134 4.972zm12.074-104.556 6.656 6.656c3.905 3.905 10.237 3.905 14.143 0l121.367-121.368 47.756 47.755-121.368 121.368c-1.875 1.875-2.929 4.419-2.929 7.071s1.054 5.196 2.929 7.071l6.656 6.656-84.213 9.003z"/><path d="m391.115 315.075 3.149-3.149c4.75-4.745 6.287-11.696 4.011-18.139-2.318-6.563-8.037-11.095-14.919-11.826l-92.028-9.839c-5.267-.618-10.436 1.151-14.189 4.851-3.764 3.71-5.6 8.875-5.037 14.179l9.789 91.552c.474 6.883 4.938 12.914 11.452 15.425 6.553 2.528 13.67 1.047 18.58-3.861l3.152-3.153 115.565 115.565c3.55 3.549 8.212 5.323 12.874 5.323s9.325-1.775 12.874-5.324l50.292-50.292c7.099-7.099 7.099-18.65 0-25.749zm52.399 176.194-121.367-121.368c-1.953-1.953-4.512-2.929-7.071-2.929s-5.119.976-7.071 2.929l-6.656 6.656-9.003-84.213 84.213 9.003-6.656 6.656c-1.875 1.875-2.929 4.419-2.929 7.071s1.054 5.196 2.929 7.071l121.367 121.369z"/><path d="m73.706 125.61c-5.523 0-9.996 4.477-9.996 10s4.48 10 10.003 10 10-4.477 10-10-4.477-10-10-10z"/></g></g></svg>